<?xml version="1.0" encoding="UTF-8" standalone="no"?>
<svg
   xmlns:dc="http://purl.org/dc/elements/1.1/"
   xmlns:cc="http://creativecommons.org/ns#"
   xmlns:rdf="http://www.w3.org/1999/02/22-rdf-syntax-ns#"
   xmlns:svg="http://www.w3.org/2000/svg"
   xmlns="http://www.w3.org/2000/svg"
   xmlns:sodipodi="http://sodipodi.sourceforge.net/DTD/sodipodi-0.dtd"
   xmlns:inkscape="http://www.inkscape.org/namespaces/inkscape"
   enable-background="new 0 0 64 64"
   height="64px"
   version="1.1"
   viewBox="0 0 64 64"
   width="64px"
   xml:space="preserve"
   id="svg363"
   sodipodi:docname="icon.svg"
   inkscape:version="0.92.4 (5da689c313, 2019-01-14)"
   inkscape:export-filename="C:\Users\adam\dev\git\github\addshore\browser-website-privacy-data-tool\app\images\icon128.png"
   inkscape:export-xdpi="192"
   inkscape:export-ydpi="192"><metadata
     id="metadata369"><rdf:RDF><cc:Work
         rdf:about=""><dc:format>image/svg+xml</dc:format><dc:type
           rdf:resource="http://purl.org/dc/dcmitype/StillImage" /><dc:title></dc:title></cc:Work></rdf:RDF></metadata><defs
     id="defs367" /><sodipodi:namedview
     pagecolor="#ffffff"
     bordercolor="#666666"
     borderopacity="1"
     objecttolerance="10"
     gridtolerance="10"
     guidetolerance="10"
     inkscape:pageopacity="0"
     inkscape:pageshadow="2"
     inkscape:window-width="1920"
     inkscape:window-height="1027"
     id="namedview365"
     showgrid="false"
     inkscape:zoom="9.4796503"
     inkscape:cx="32.824937"
     inkscape:cy="29.365553"
     inkscape:window-x="1912"
     inkscape:window-y="-8"
     inkscape:window-maximized="1"
     inkscape:current-layer="Layer_1-9" /><g
     id="Layer_1"><g
       id="g548"><g
         id="Layer_1-9"><g
           id="g496"><circle
             id="circle494"
             r="32"
             cy="32"
             cx="32"
             style="fill:#e0e0d1" /></g><g
           id="g500"
           style="opacity:0.2"
           transform="translate(0,3.0591846)"><path
             id="path498"
             d="m 33.752,53.565 c -0.968,0.581 -2.537,0.581 -3.504,0 L 12.726,43.051 c -0.968,-0.581 -0.968,-1.522 0,-2.103 L 30.248,30.435 c 0.968,-0.581 2.537,-0.581 3.504,0 l 17.522,10.513 c 0.968,0.581 0.968,1.522 0,2.103 z"
             inkscape:connector-curvature="0"
             style="fill:#231f20" /></g><g
           id="g504"
           transform="translate(0,3.0591846)"><path
             id="path502"
             d="m 33.752,51.565 c -0.968,0.581 -2.537,0.581 -3.504,0 L 12.726,41.051 c -0.968,-0.581 -0.968,-1.522 0,-2.103 L 30.248,28.435 c 0.968,-0.581 2.537,-0.581 3.504,0 l 17.522,10.513 c 0.968,0.581 0.968,1.522 0,2.103 z"
             inkscape:connector-curvature="0"
             style="fill:#c75c5c" /></g><g
           id="g508"
           style="opacity:0.2"
           transform="translate(0,3.0591846)"><path
             id="path506"
             d="m 33.752,45.565 c -0.968,0.581 -2.537,0.581 -3.504,0 L 12.726,35.051 c -0.968,-0.581 -0.968,-1.522 0,-2.103 L 30.248,22.435 c 0.968,-0.581 2.537,-0.581 3.504,0 l 17.522,10.513 c 0.968,0.581 0.968,1.522 0,2.103 z"
             inkscape:connector-curvature="0"
             style="fill:#231f20" /></g><g
           id="g512"
           transform="translate(0,3.0591846)"><path
             id="path510"
             d="m 33.752,43.565 c -0.968,0.581 -2.537,0.581 -3.504,0 L 12.726,33.051 c -0.968,-0.581 -0.968,-1.522 0,-2.103 L 30.248,20.435 c 0.968,-0.581 2.537,-0.581 3.504,0 l 17.522,10.513 c 0.968,0.581 0.968,1.522 0,2.103 z"
             inkscape:connector-curvature="0"
             style="fill:#76c2af" /></g><g
           id="g516"
           style="opacity:0.2"
           transform="translate(0,3.0591846)"><path
             id="path514"
             d="m 33.752,37.565 c -0.968,0.581 -2.537,0.581 -3.504,0 L 12.726,27.051 c -0.968,-0.581 -0.968,-1.522 0,-2.103 L 30.248,14.435 c 0.968,-0.581 2.537,-0.581 3.504,0 l 17.522,10.513 c 0.968,0.581 0.968,1.522 0,2.103 z"
             inkscape:connector-curvature="0"
             style="fill:#231f20" /></g><g
           id="g520"
           transform="translate(0,3.0591846)"><path
             id="path518"
             d="m 33.752,35.565 c -0.968,0.581 -2.537,0.581 -3.504,0 L 12.726,25.051 c -0.968,-0.581 -0.968,-1.522 0,-2.103 L 30.248,12.435 c 0.968,-0.581 2.537,-0.581 3.504,0 l 17.522,10.513 c 0.968,0.581 0.968,1.522 0,2.103 z"
             inkscape:connector-curvature="0"
             style="fill:#4f5d73" /></g><g
           id="g836"
           transform="matrix(0.68142987,0,0,0.68142987,19.102231,-8.5235099)"><g
             id="Layer_1-7"><g
               id="g844"
               transform="matrix(0.9192902,0,0,0.94766762,-10.088095,8.2318514)"><g
                 transform="translate(-0.14918415,0.52214452)"
                 style="opacity:0.2"
                 id="g806"><path
                   style="fill:#231f20"
                   inkscape:connector-curvature="0"
                   d="M 32,12 C 19.85,12 10,21.85 10,34 10,46.15 19.85,56 32,56 44.15,56 54,46.15 54,34 54,21.85 44.15,12 32,12 Z m 16,22 c 0,3.329 -1.024,6.423 -2.771,8.986 L 23.014,20.771 C 25.577,19.024 28.671,18 32,18 c 8.822,0 16,7.178 16,16 z m -32,0 c 0,-3.329 1.024,-6.423 2.771,-8.986 L 40.986,47.229 C 38.423,48.976 35.329,50 32,50 23.178,50 16,42.822 16,34 Z"
                   id="path804" /></g><g
                 transform="translate(-0.14918415,0.52214452)"
                 id="g810"><path
                   style="fill:#c75c5c"
                   inkscape:connector-curvature="0"
                   d="m 32,16 c 8.822,0 16,7.178 16,16 0,8.822 -7.178,16 -16,16 -8.822,0 -16,-7.178 -16,-16 0,-8.822 7.178,-16 16,-16 m 0,-6 C 19.85,10 10,19.85 10,32 10,44.15 19.85,54 32,54 44.15,54 54,44.15 54,32 54,19.85 44.15,10 32,10 Z"
                   id="path808" /></g><g
                 transform="translate(-0.14918415,0.52214452)"
                 id="g814"><rect
                   style="fill:#c75c5c"
                   height="39.598"
                   transform="matrix(0.7071,-0.7071,0.7071,0.7071,-13.2548,32)"
                   width="5.9990001"
                   x="29"
                   y="12.201"
                   id="rect812" /></g></g></g><g
             id="Layer_2-4" /></g></g><g
         id="Layer_2-8" /></g><g
       id="g617"
       transform="matrix(0.93642892,0,0,0.94013096,11.850558,11.053557)"><g
         id="Layer_1-8"><g
           id="g583" /><g
           id="g595"
           transform="matrix(0.50305882,0,0,0.50305882,-1.2981385,20.371534)"><g
             id="g638"
             transform="matrix(0.29137529,0,0,0.29137529,36.866217,35.431235)"><g
               style="opacity:0.2"
               id="g587"><path
                 style="fill:#231f20"
                 inkscape:connector-curvature="0"
                 d="m 50.187,43.375 c -2.018,-1.516 -8.375,-4.188 -8.375,-4.188 0,0 -7,5.438 -14,-6 C 19.715,19.957 16,18 16,18 c 0,0 -4,4 -4,8 0,4 4,10 4,22 0,1.105 0.895,2 2,2 1.105,0 2,-0.895 2,-2 V 34 c 0,0 4,0 8,8 4,8 8,8 12,8 4,0 12,-0.188 12,-1.688 0,-1.745 0.379,-3.29 -1.813,-4.937 z"
                 id="path585" /></g><g
               id="g591"><path
                 style="fill:#ffffff"
                 inkscape:connector-curvature="0"
                 d="m 16,16 c 0,0 -4,4 -4,8 0,4 4,10 4,22 h 4 V 32 c 0,0 4,0 8,8 4,8 8,8 12,8 4,0 12,-0.188 12,-1.688 0,-1.746 0.379,-3.291 -1.813,-4.938 -2.018,-1.516 -8.375,-4.188 -8.375,-4.188 0,0 -7,5.438 -14,-6 C 19.715,17.957 16,16 16,16 Z"
                 id="path589" /></g><path
               style="fill:#ffffff"
               inkscape:connector-curvature="0"
               d="m 20,46 c 0,1.105 -0.895,2 -2,2 v 0 c -1.105,0 -2,-0.895 -2,-2 v 0 c 0,-1.105 0.895,-2 2,-2 v 0 c 1.105,0 2,0.895 2,2 z"
               id="path593" /></g></g></g><g
         id="Layer_2-1" /></g><g
       id="g709"
       transform="matrix(0.26522638,0,0,0.26305252,20.576227,24.495023)"><g
         id="Layer_1-6"><g
           id="g728"
           transform="matrix(0.46924779,0,0,0.46924779,29.477978,28.129867)"><g
             style="opacity:0.2"
             id="g656"><g
               id="g648"><g
                 id="g646"><path
                   style="fill:#231f20"
                   inkscape:connector-curvature="0"
                   d="m 42.461,44 c -0.671,0 -1.326,-0.338 -1.705,-0.951 -0.58,-0.94 -0.287,-2.172 0.653,-2.752 l 10.124,-6.242 c 0.005,-0.018 0.007,-0.036 0.007,-0.056 0,-0.02 -0.002,-0.038 -0.007,-0.056 L 41.41,27.703 c -0.94,-0.58 -1.232,-1.812 -0.653,-2.752 0.58,-0.94 1.812,-1.232 2.752,-0.653 l 10.63,6.554 0.165,0.165 c 0.797,0.797 1.236,1.856 1.236,2.983 0,1.126 -0.439,2.186 -1.236,2.983 l -0.166,0.166 -10.63,6.554 C 43.182,43.904 42.819,44 42.461,44 Z"
                   id="path644" /></g></g><g
               id="g654"><g
                 id="g652"><path
                   style="fill:#231f20"
                   inkscape:connector-curvature="0"
                   d="m 21.539,44 c -0.358,0 -0.721,-0.096 -1.048,-0.298 L 9.861,37.148 9.695,36.982 C 8.898,36.186 8.459,35.126 8.459,34 c 0,-1.127 0.439,-2.187 1.236,-2.983 L 9.86,30.852 20.49,24.298 c 0.941,-0.58 2.172,-0.287 2.752,0.653 0.58,0.94 0.287,2.172 -0.653,2.752 l -10.124,6.242 c -0.005,0.018 -0.007,0.036 -0.007,0.056 0,0.02 0.002,0.038 0.007,0.056 l 10.124,6.242 c 0.94,0.58 1.232,1.812 0.653,2.752 C 22.865,43.663 22.209,44 21.539,44 Z"
                   id="path650" /></g></g></g><g
             style="opacity:0.2"
             id="g662"><g
               id="g660"><path
                 style="fill:#231f20"
                 inkscape:connector-curvature="0"
                 d="m 25.5,53 c -0.237,0 -0.479,-0.042 -0.714,-0.132 -1.032,-0.395 -1.548,-1.551 -1.154,-2.583 l 13,-34 c 0.395,-1.032 1.551,-1.549 2.583,-1.154 1.032,0.395 1.548,1.551 1.154,2.583 l -13,34 C 27.063,52.511 26.305,53 25.5,53 Z"
                 id="path658" /></g></g><g
             id="g672"><g
               id="g666"><path
                 style="fill:#ffffff"
                 inkscape:connector-curvature="0"
                 d="m 42.461,42 c -0.671,0 -1.327,-0.337 -1.705,-0.95 -0.58,-0.94 -0.287,-2.173 0.653,-2.752 l 10.123,-6.241 c 0.01,-0.037 0.01,-0.076 0,-0.113 L 41.41,25.702 c -0.94,-0.579 -1.233,-1.812 -0.653,-2.752 0.58,-0.94 1.811,-1.233 2.752,-0.652 l 10.631,6.554 0.166,0.165 c 1.644,1.646 1.644,4.321 0,5.967 L 54.14,35.149 43.509,41.703 C 43.182,41.904 42.819,42 42.461,42 Z"
                 id="path664" /></g><g
               id="g670"><path
                 style="fill:#ffffff"
                 inkscape:connector-curvature="0"
                 d="m 21.539,42 c -0.358,0 -0.72,-0.096 -1.047,-0.298 L 9.86,35.148 9.694,34.983 C 8.05,33.337 8.05,30.662 9.694,29.016 L 9.86,28.851 20.491,22.297 c 0.939,-0.581 2.173,-0.288 2.752,0.652 0.58,0.94 0.287,2.173 -0.653,2.752 l -10.123,6.241 c -0.01,0.037 -0.01,0.076 0,0.113 l 10.123,6.241 c 0.94,0.579 1.233,1.812 0.653,2.752 C 22.865,41.663 22.209,42 21.539,42 Z"
                 id="path668" /></g></g><g
             id="g676"><path
               style="fill:#ffffff"
               inkscape:connector-curvature="0"
               d="m 25.5,51.001 c -0.237,0 -0.479,-0.043 -0.714,-0.133 -1.032,-0.395 -1.548,-1.551 -1.154,-2.582 l 13,-34 c 0.395,-1.031 1.551,-1.55 2.583,-1.154 1.032,0.395 1.548,1.551 1.154,2.582 l -13,34 c -0.306,0.797 -1.064,1.287 -1.869,1.287 z"
               id="path674" /></g></g></g><g
         id="Layer_2-5" /></g><g
       id="g782"
       transform="matrix(0.93851005,0,0,0.93851005,8.4487726,13.407869)"><g
         id="g754" /><g
         id="g798"
         transform="matrix(0.13141673,0,0,0.13141673,20.060129,27.951538)"><g
           transform="translate(5.967366,1.4172494)"
           style="opacity:0.2"
           id="g734"><path
             style="fill:#231f20"
             inkscape:connector-curvature="0"
             d="m 19,35 c 3.308,0 6,2.692 6,6 0,3.308 -2.692,6 -6,6 -3.308,0 -6,-2.692 -6,-6 0,-3.308 2.692,-6 6,-6 m 0,-3 c -4.971,0 -9,4.029 -9,9 0,4.971 4.029,9 9,9 4.971,0 9,-4.029 9,-9 0,-4.971 -4.029,-9 -9,-9 z"
             id="path732" /></g><g
           transform="translate(5.967366,1.4172494)"
           style="opacity:0.2"
           id="g738"><path
             style="fill:#231f20"
             inkscape:connector-curvature="0"
             d="m 46,35 c 3.308,0 6,2.692 6,6 0,3.308 -2.692,6 -6,6 -3.308,0 -6,-2.692 -6,-6 0,-3.308 2.692,-6 6,-6 m 0,-3 c -4.971,0 -9,4.029 -9,9 0,4.971 4.029,9 9,9 4.971,0 9,-4.029 9,-9 0,-4.971 -4.029,-9 -9,-9 z"
             id="path736" /></g><g
           transform="translate(5.967366,1.4172494)"
           style="opacity:0.2"
           id="g742"><path
             style="fill:#231f20"
             inkscape:connector-curvature="0"
             d="m 32.5,44.498 c -0.828,0 -1.5,-0.671 -1.5,-1.5 V 35.7 l -8.229,-7.933 c -0.29,-0.28 -0.455,-0.664 -0.459,-1.066 -0.004,-0.402 0.154,-0.79 0.439,-1.074 l 5.188,-5.188 c 0.567,-0.569 1.485,-0.589 2.078,-0.042 L 36.087,26 H 39 c 0.828,0 1.5,0.671 1.5,1.5 0,0.829 -0.672,1.5 -1.5,1.5 h -3.5 c -0.377,0 -0.74,-0.142 -1.018,-0.398 l -5.44,-5.022 -3.089,3.088 7.588,7.314 C 33.834,34.265 34,34.655 34,35.062 v 7.936 c 0,0.829 -0.672,1.5 -1.5,1.5 z"
             id="path740" /></g><g
           transform="translate(5.967366,1.4172494)"
           style="opacity:0.2"
           id="g746"><circle
             style="fill:#231f20"
             cx="34.5"
             cy="16.5"
             r="3.5"
             id="circle744" /></g><g
           transform="translate(5.967366,1.4172494)"
           id="g750"><path
             style="fill:#ffffff"
             inkscape:connector-curvature="0"
             d="m 19,33 c 3.308,0 6,2.692 6,6 0,3.308 -2.692,6 -6,6 -3.308,0 -6,-2.692 -6,-6 0,-3.308 2.692,-6 6,-6 m 0,-3 c -4.971,0 -9,4.029 -9,9 0,4.971 4.029,9 9,9 4.971,0 9,-4.029 9,-9 0,-4.971 -4.029,-9 -9,-9 z"
             id="path748" /></g><path
           style="fill:#ffffff"
           inkscape:connector-curvature="0"
           d="m 51.967366,34.417249 c 3.308,0 6,2.692 6,6 0,3.308 -2.692,6 -6,6 -3.308,0 -6,-2.692 -6,-6 0,-3.308 2.692,-6 6,-6 m 0,-3 c -4.971,0 -9,4.029 -9,9 0,4.971 4.029,9 9,9 4.971,0 9,-4.029 9,-9 0,-4.971 -4.029,-9 -9,-9 z"
           id="path752" /><polyline
           transform="translate(5.967366,1.4172494)"
           style="fill:none;stroke:#ffffff;stroke-width:3;stroke-linecap:round;stroke-linejoin:round;stroke-miterlimit:10"
           points="  32.5,40.998 32.5,33.062 23.812,24.688 29,19.5 35.5,25.5 39,25.5 "
           stroke-miterlimit="10"
           id="polyline756" /><circle
           style="fill:#ffffff"
           cx="40.467365"
           cy="15.91725"
           r="3.5"
           id="circle758" /></g></g></g><g
     id="Layer_2" /></svg>